<mxfile host="app.diagrams.net" modified="2023-05-07T15:53:29.883Z" agent="Mozilla/5.0 (Windows NT 10.0; Win64; x64; rv:109.0) Gecko/20100101 Firefox/112.0" etag="sIToiUdVvqWWarshrFZS" version="21.2.9" type="device">
  <diagram id="C5RBs43oDa-KdzZeNtuy" name="Page-1">
    <mxGraphModel dx="2190" dy="894" grid="1" gridSize="10" guides="1" tooltips="1" connect="1" arrows="1" fold="1" page="1" pageScale="1" pageWidth="827" pageHeight="1169" math="0" shadow="0">
      <root>
        <mxCell id="WIyWlLk6GJQsqaUBKTNV-0" />
        <mxCell id="WIyWlLk6GJQsqaUBKTNV-1" parent="WIyWlLk6GJQsqaUBKTNV-0" />
        <mxCell id="yz9m5tHMcfQa8jU9GLDd-2" value="" style="edgeStyle=orthogonalEdgeStyle;rounded=0;orthogonalLoop=1;jettySize=auto;html=1;" parent="WIyWlLk6GJQsqaUBKTNV-1" source="yz9m5tHMcfQa8jU9GLDd-0" target="yz9m5tHMcfQa8jU9GLDd-1" edge="1">
          <mxGeometry relative="1" as="geometry" />
        </mxCell>
        <mxCell id="yz9m5tHMcfQa8jU9GLDd-0" value="Start" style="rounded=1;whiteSpace=wrap;html=1;fontStyle=1" parent="WIyWlLk6GJQsqaUBKTNV-1" vertex="1">
          <mxGeometry x="67" y="65" width="120" height="60" as="geometry" />
        </mxCell>
        <mxCell id="yz9m5tHMcfQa8jU9GLDd-4" value="" style="edgeStyle=orthogonalEdgeStyle;rounded=0;orthogonalLoop=1;jettySize=auto;html=1;" parent="WIyWlLk6GJQsqaUBKTNV-1" source="yz9m5tHMcfQa8jU9GLDd-1" target="yz9m5tHMcfQa8jU9GLDd-3" edge="1">
          <mxGeometry relative="1" as="geometry" />
        </mxCell>
        <mxCell id="yz9m5tHMcfQa8jU9GLDd-1" value="&lt;div&gt;&lt;b&gt;Input:&lt;/b&gt;&lt;/div&gt;&lt;div&gt;&lt;ul&gt;&lt;li&gt;&lt;div align=&quot;left&quot;&gt;DMI,&lt;/div&gt;&lt;/li&gt;&lt;li&gt;&lt;div align=&quot;left&quot;&gt;Data oseanografi: arus&lt;br&gt;laut, temperatur laut, salinitas, MLD, Chl-a, fluks air tawar, dan fluks panas bersih&lt;br&gt;&lt;/div&gt;&lt;/li&gt;&lt;li&gt;&lt;div align=&quot;left&quot;&gt;Data meteorologi: laju presipitasi dan tekanan angin &lt;br&gt;&lt;/div&gt;&lt;/li&gt;&lt;/ul&gt;&lt;/div&gt;" style="shape=parallelogram;perimeter=parallelogramPerimeter;whiteSpace=wrap;html=1;fixedSize=1;" parent="WIyWlLk6GJQsqaUBKTNV-1" vertex="1">
          <mxGeometry x="237.5" y="20" width="285" height="150" as="geometry" />
        </mxCell>
        <mxCell id="yz9m5tHMcfQa8jU9GLDd-6" value="" style="edgeStyle=orthogonalEdgeStyle;rounded=0;orthogonalLoop=1;jettySize=auto;html=1;" parent="WIyWlLk6GJQsqaUBKTNV-1" source="yz9m5tHMcfQa8jU9GLDd-3" target="yz9m5tHMcfQa8jU9GLDd-5" edge="1">
          <mxGeometry relative="1" as="geometry" />
        </mxCell>
        <mxCell id="yz9m5tHMcfQa8jU9GLDd-3" value="&lt;div&gt;&lt;b&gt;Process:&lt;/b&gt;&lt;/div&gt;&lt;div&gt;Pemetaan dan penggambaran data dengan cara:&lt;/div&gt;&lt;div align=&quot;left&quot;&gt;&lt;ul&gt;&lt;li&gt;Prapemrosesan data&lt;/li&gt;&lt;li&gt;Pemetaan data&lt;/li&gt;&lt;li&gt;Pembersihan data&lt;br&gt;&lt;/li&gt;&lt;li&gt;Penggambaran Data&lt;/li&gt;&lt;/ul&gt;&lt;/div&gt;" style="whiteSpace=wrap;html=1;" parent="WIyWlLk6GJQsqaUBKTNV-1" vertex="1">
          <mxGeometry x="285" y="220" width="190" height="146" as="geometry" />
        </mxCell>
        <mxCell id="yz9m5tHMcfQa8jU9GLDd-8" value="" style="edgeStyle=orthogonalEdgeStyle;rounded=0;orthogonalLoop=1;jettySize=auto;html=1;exitX=0.5;exitY=1;exitDx=0;exitDy=0;" parent="WIyWlLk6GJQsqaUBKTNV-1" source="yz9m5tHMcfQa8jU9GLDd-3" target="yz9m5tHMcfQa8jU9GLDd-7" edge="1">
          <mxGeometry relative="1" as="geometry" />
        </mxCell>
        <mxCell id="yz9m5tHMcfQa8jU9GLDd-9" style="edgeStyle=orthogonalEdgeStyle;rounded=0;orthogonalLoop=1;jettySize=auto;html=1;exitX=0.5;exitY=1;exitDx=0;exitDy=0;" parent="WIyWlLk6GJQsqaUBKTNV-1" source="yz9m5tHMcfQa8jU9GLDd-3" target="yz9m5tHMcfQa8jU9GLDd-10" edge="1">
          <mxGeometry relative="1" as="geometry">
            <mxPoint x="470" y="490" as="targetPoint" />
          </mxGeometry>
        </mxCell>
        <mxCell id="FtJw2GN65vWLXZhQzVCh-4" style="edgeStyle=orthogonalEdgeStyle;rounded=0;orthogonalLoop=1;jettySize=auto;html=1;" edge="1" parent="WIyWlLk6GJQsqaUBKTNV-1" source="yz9m5tHMcfQa8jU9GLDd-5" target="FtJw2GN65vWLXZhQzVCh-3">
          <mxGeometry relative="1" as="geometry">
            <Array as="points">
              <mxPoint x="696" y="360" />
              <mxPoint x="696" y="360" />
            </Array>
          </mxGeometry>
        </mxCell>
        <mxCell id="yz9m5tHMcfQa8jU9GLDd-5" value="&lt;b&gt;Output:&lt;/b&gt;&lt;br&gt;&lt;div&gt;Peta IOD, oseanografi, dan&amp;nbsp;&lt;/div&gt;&lt;div&gt;meteorologi&amp;nbsp;&lt;/div&gt;" style="shape=parallelogram;perimeter=parallelogramPerimeter;whiteSpace=wrap;html=1;fixedSize=1;" parent="WIyWlLk6GJQsqaUBKTNV-1" vertex="1">
          <mxGeometry x="582.5" y="258" width="230" height="70" as="geometry" />
        </mxCell>
        <mxCell id="FtJw2GN65vWLXZhQzVCh-1" style="edgeStyle=orthogonalEdgeStyle;rounded=0;orthogonalLoop=1;jettySize=auto;html=1;entryX=0;entryY=0.5;entryDx=0;entryDy=0;" edge="1" parent="WIyWlLk6GJQsqaUBKTNV-1" source="yz9m5tHMcfQa8jU9GLDd-7" target="CJUjpx6Cfi2GCEw2xXfa-0">
          <mxGeometry relative="1" as="geometry">
            <Array as="points">
              <mxPoint x="445" y="660" />
            </Array>
          </mxGeometry>
        </mxCell>
        <mxCell id="yz9m5tHMcfQa8jU9GLDd-7" value="&lt;b&gt;Process:&lt;/b&gt;&lt;br&gt;&lt;div&gt;Analisis &lt;i&gt;seasonal model&lt;/i&gt; dengan cara:&lt;/div&gt;&lt;div align=&quot;left&quot;&gt;&lt;ul&gt;&lt;li&gt;Inisialisasi&lt;/li&gt;&lt;li&gt;Input DMI, parameter oseanoografi, dan parameter meteorologi&lt;/li&gt;&lt;li&gt;Estimasi 3 nilai parameter alpha, beta, gamma dengan fungsi model linear (lm()) dalam R&lt;/li&gt;&lt;li&gt;Plot &lt;i&gt;seasonal model&lt;/i&gt;&lt;br&gt;&lt;/li&gt;&lt;/ul&gt;&lt;/div&gt;" style="whiteSpace=wrap;html=1;" parent="WIyWlLk6GJQsqaUBKTNV-1" vertex="1">
          <mxGeometry x="320" y="430" width="250" height="170" as="geometry" />
        </mxCell>
        <mxCell id="FtJw2GN65vWLXZhQzVCh-2" style="edgeStyle=orthogonalEdgeStyle;rounded=0;orthogonalLoop=1;jettySize=auto;html=1;entryX=0;entryY=0.5;entryDx=0;entryDy=0;" edge="1" parent="WIyWlLk6GJQsqaUBKTNV-1" source="yz9m5tHMcfQa8jU9GLDd-10" target="CJUjpx6Cfi2GCEw2xXfa-0">
          <mxGeometry relative="1" as="geometry">
            <Array as="points">
              <mxPoint x="360" y="660" />
              <mxPoint x="360" y="660" />
            </Array>
          </mxGeometry>
        </mxCell>
        <mxCell id="yz9m5tHMcfQa8jU9GLDd-10" value="&lt;b&gt;Process:&lt;/b&gt;&lt;br&gt;&lt;div&gt;Analisis statistik dengan  &lt;br&gt;&lt;/div&gt;&lt;div&gt;analisis korelasi:&lt;br&gt;&lt;/div&gt;&lt;div align=&quot;left&quot;&gt;&lt;ul&gt;&lt;li&gt;Tentukan hipotesis nol dan hipotesis alternatif&amp;nbsp;&lt;/li&gt;&lt;li&gt;Tentukan tingkat signifikansi alpha (alpha 1% atau 5%)&lt;/li&gt;&lt;li&gt;Hitung koefisien korelasi antara dua variabel&lt;/li&gt;&lt;li&gt;Hitung nilai p (nilai probabilitas) dari koefisien korelasi untuk menentukan signifikansi statistik&lt;/li&gt;&lt;li&gt;Bandingkan nilai p dengan tingkat signifikansi alpha. &lt;br&gt;&lt;/li&gt;&lt;ul&gt;&lt;li&gt;Jika p &amp;lt; alpha, maka korelasi signifikan secara statistik dan hipotesis nol dapat ditolak. &lt;br&gt;&lt;/li&gt;&lt;li&gt;jika p &amp;gt; alpha, maka tidak ada bukti yang cukup untuk menolak hipotesis nol dan korelasi dianggap tidak signifikan.&lt;/li&gt;&lt;/ul&gt;&lt;li&gt;Plot hasil uji korelasi&lt;br&gt;&lt;/li&gt;&lt;/ul&gt;&lt;/div&gt;" style="rounded=0;whiteSpace=wrap;html=1;" parent="WIyWlLk6GJQsqaUBKTNV-1" vertex="1">
          <mxGeometry x="-31" y="430" width="316" height="300" as="geometry" />
        </mxCell>
        <mxCell id="FtJw2GN65vWLXZhQzVCh-5" style="edgeStyle=orthogonalEdgeStyle;rounded=0;orthogonalLoop=1;jettySize=auto;html=1;entryX=0.5;entryY=1;entryDx=0;entryDy=0;" edge="1" parent="WIyWlLk6GJQsqaUBKTNV-1" source="CJUjpx6Cfi2GCEw2xXfa-0" target="FtJw2GN65vWLXZhQzVCh-3">
          <mxGeometry relative="1" as="geometry">
            <Array as="points">
              <mxPoint x="696" y="600" />
              <mxPoint x="696" y="600" />
            </Array>
          </mxGeometry>
        </mxCell>
        <mxCell id="CJUjpx6Cfi2GCEw2xXfa-0" value="&lt;div&gt;&lt;b&gt;Output:&lt;/b&gt;&lt;/div&gt;&lt;div&gt;Peta &lt;i&gt;seasonal model,&lt;/i&gt; peta korelasi, dan tabulasi hasil&lt;/div&gt;" style="shape=parallelogram;perimeter=parallelogramPerimeter;whiteSpace=wrap;html=1;fixedSize=1;" parent="WIyWlLk6GJQsqaUBKTNV-1" vertex="1">
          <mxGeometry x="597.5" y="630" width="212.5" height="60" as="geometry" />
        </mxCell>
        <mxCell id="CJUjpx6Cfi2GCEw2xXfa-1" value="&lt;b&gt;End&lt;/b&gt;" style="whiteSpace=wrap;html=1;rounded=1;" parent="WIyWlLk6GJQsqaUBKTNV-1" vertex="1">
          <mxGeometry x="830" y="485" width="120" height="60" as="geometry" />
        </mxCell>
        <mxCell id="FtJw2GN65vWLXZhQzVCh-6" value="" style="edgeStyle=orthogonalEdgeStyle;rounded=0;orthogonalLoop=1;jettySize=auto;html=1;" edge="1" parent="WIyWlLk6GJQsqaUBKTNV-1" source="FtJw2GN65vWLXZhQzVCh-3" target="CJUjpx6Cfi2GCEw2xXfa-1">
          <mxGeometry relative="1" as="geometry" />
        </mxCell>
        <mxCell id="FtJw2GN65vWLXZhQzVCh-3" value="&lt;div&gt;&lt;b&gt;Decision:&lt;/b&gt;&lt;/div&gt;&lt;div&gt;Interpretasi dan pelaporan&lt;br&gt;&lt;/div&gt;" style="rhombus;whiteSpace=wrap;html=1;" vertex="1" parent="WIyWlLk6GJQsqaUBKTNV-1">
          <mxGeometry x="601.25" y="470" width="188.75" height="90" as="geometry" />
        </mxCell>
      </root>
    </mxGraphModel>
  </diagram>
</mxfile>
